<?xml version="1.0" encoding="utf-8"?>
<!-- Generator: Adobe Illustrator 19.2.1, SVG Export Plug-In . SVG Version: 6.00 Build 0)  -->
<svg version="1.1"
	 id="svg2" inkscape:version="0.92.1 r15371" sodipodi:docname="online-shop22.svg" xmlns:cc="http://creativecommons.org/ns#" xmlns:dc="http://purl.org/dc/elements/1.1/" xmlns:inkscape="http://www.inkscape.org/namespaces/inkscape" xmlns:rdf="http://www.w3.org/1999/02/22-rdf-syntax-ns#" xmlns:sodipodi="http://sodipodi.sourceforge.net/DTD/sodipodi-0.dtd" xmlns:svg="http://www.w3.org/2000/svg"
	 xmlns="http://www.w3.org/2000/svg" xmlns:xlink="http://www.w3.org/1999/xlink" x="0px" y="0px" viewBox="0 0 173.6 173.6"
	 style="enable-background:new 0 0 173.6 173.6;" xml:space="preserve">
<style type="text/css">
	.st0{fill:#FF8D00;}
</style>
<sodipodi:namedview  bordercolor="#666666" borderopacity="1" gridtolerance="10" guidetolerance="10" id="namedview4" inkscape:current-layer="svg2" inkscape:cx="86.779663" inkscape:cy="86.779663" inkscape:pageopacity="0" inkscape:pageshadow="2" inkscape:window-height="812" inkscape:window-maximized="0" inkscape:window-width="1094" inkscape:window-x="258" inkscape:window-y="108" inkscape:zoom="1.3597656" objecttolerance="10" pagecolor="#ffffff" showgrid="false">
	</sodipodi:namedview>
<path id="path3688" inkscape:connector-curvature="0" class="st0" d="M48.8,157.4c0-1.5,2.3-2.7,5.1-2.7c4.4,0,8.3-6.5,8.4-14.2
	c0-1.1-12.5-2-27.9-2c-18.1,0-29.1-1.1-31.2-3.3c-4.6-4.6-4.6-113.6,0-118.2c4.6-4.6,162.4-4.6,167.1,0c4.6,4.6,4.6,113.6,0,118.2
	c-2.1,2.1-13.1,3.3-31.2,3.3c-15.4,0-27.9,0.9-27.9,2c0.1,7.7,4,14.2,8.4,14.2c2.8,0,5.1,1.2,5.1,2.7c0,1.7-14.5,2.7-38,2.7
	C63.3,160.1,48.8,159.1,48.8,157.4L48.8,157.4z M107.5,148.6c-0.9-3.4-1.7-7-1.7-8.1c-0.1-4.3-8.1-1.8-10.9,3.4
	c-1.6,3-5.3,5.4-8.1,5.4c-2.9,0-6.5-2.4-8.1-5.4c-2.8-5.2-10.8-7.7-10.9-3.4c0,1.1-0.8,4.8-1.7,8.1c-1.6,6-1.1,6.1,20.7,6.1
	C108.6,154.7,109.1,154.6,107.5,148.6L107.5,148.6z M90.8,141.1c0.9-1.5-0.9-2.7-4.1-2.7c-3.2,0-5,1.2-4.1,2.7
	c0.9,1.5,2.8,2.7,4.1,2.7C88.1,143.8,89.9,142.6,90.8,141.1z M166.8,76V20.5h-80h-80L6,73.3c-0.4,29-0.1,54.4,0.6,56.3
	c1.1,2.8,17.7,3.4,80.7,2.8l79.4-0.7V76z M10.8,76V24.5h67.8c43.4,0,67.8,1,67.8,2.7c0,1.7-23.5,2.7-65.1,2.7H16.3V76
	c0,28.9,1,46.1,2.7,46.1c1.5,0,2.7,1.2,2.7,2.7c0,1.5-2.4,2.7-5.4,2.7C11,127.6,10.8,125.8,10.8,76L10.8,76z M27.1,124.9
	c0-1.7,23.5-2.7,65.1-2.7h65.1V76c0-28.9-1-46.1-2.7-46.1c-1.5,0-2.7-1.2-2.7-2.7s2.4-2.7,5.4-2.7c5.2,0,5.4,1.8,5.4,51.5v51.5H94.9
	C51.5,127.6,27.1,126.6,27.1,124.9L27.1,124.9z M65.1,107.2c-2-2.5-2.8-7.8-1.9-13.4c1.9-11.6-6.8-41.4-13.5-46.3
	c-7.1-5.2-2.2-8.3,5.2-3.4c4,2.6,17.1,4.8,36.9,6.1l30.6,2l-1.9,11.2c-3.4,20.5-2.5,20-39.9,24.8C59.3,91,66.2,95,92.2,95
	c22.1,0,24.4,0.5,24.4,5.1c0,2.8-2,6.7-4.4,8.7c-3.7,3.1-5.1,2.8-9.2-2.4c-6.4-7.9-21.6-8.3-26.4-0.6
	C72.5,112.4,69.6,112.7,65.1,107.2L65.1,107.2z M73.2,103.2c0-1.5-1.2-2.7-2.7-2.7s-2.7,1.2-2.7,2.7c0,1.5,1.2,2.7,2.7,2.7
	C72,105.9,73.2,104.7,73.2,103.2z M111.2,103.2c0-1.5-1.2-2.7-2.7-2.7c-1.5,0-2.7,1.2-2.7,2.7c0,1.5,1.2,2.7,2.7,2.7
	S111.2,104.7,111.2,103.2z M75.9,80.8c-0.1-5.2-4.4-11-7.5-9.8c-1.6,0.6-1.8,3.4-0.4,7.1C70.5,84.6,76,86.5,75.9,80.8z M86.8,76
	c0-3-1.8-5.4-4.1-5.4c-4.6,0-4.7,0.5-2.4,6.6C82.6,83.2,86.8,82.5,86.8,76z M100.3,76c0-3-1.8-5.4-4.1-5.4S92.2,73,92.2,76
	s1.8,5.4,4.1,5.4C98.5,81.5,100.3,79.1,100.3,76z M112.2,74.7c1-2.5,0-4.1-2.4-4.1c-2.2,0-4,1.8-4,4.1c0,2.2,1.1,4.1,2.4,4.1
	S111.3,76.9,112.2,74.7L112.2,74.7z M73.2,64.1c0-4.3-3.9-9.7-7.1-9.7c-3.9,0-5.2,5.8-2,9C66.2,65.4,73.2,65.9,73.2,64.1L73.2,64.1z
	 M86.8,59.8c0-3.6-1.8-5.4-5.4-5.4c-6,0-6.2,0.3-3.8,6.6C79.9,67.1,86.8,66.2,86.8,59.8z M100.3,61.1c0-2.2-1.8-4.1-4.1-4.1
	s-4.1,1.8-4.1,4.1c0,2.2,1.8,4.1,4.1,4.1C98.5,65.2,100.3,63.4,100.3,61.1z M115.9,60.5c0.7-2-1.2-3.4-4.5-3.4
	c-3.3,0-5.6,1.8-5.6,4.3C105.8,66.3,114.2,65.6,115.9,60.5L115.9,60.5z"/>
</svg>
