<?xml version="1.0" encoding="utf-8"?>
<!-- Generator: Adobe Illustrator 19.2.1, SVG Export Plug-In . SVG Version: 6.00 Build 0)  -->
<svg version="1.1"
	 id="svg2" inkscape:version="0.92.1 r15371" sodipodi:docname="id.svg" xmlns:cc="http://creativecommons.org/ns#" xmlns:dc="http://purl.org/dc/elements/1.1/" xmlns:inkscape="http://www.inkscape.org/namespaces/inkscape" xmlns:rdf="http://www.w3.org/1999/02/22-rdf-syntax-ns#" xmlns:sodipodi="http://sodipodi.sourceforge.net/DTD/sodipodi-0.dtd" xmlns:svg="http://www.w3.org/2000/svg"
	 xmlns="http://www.w3.org/2000/svg" xmlns:xlink="http://www.w3.org/1999/xlink" x="0px" y="0px" viewBox="0 0 173.6 173.6"
	 style="enable-background:new 0 0 173.6 173.6;" xml:space="preserve">
<style type="text/css">
	.st0{fill:#FF8D00;}
</style>
<sodipodi:namedview  bordercolor="#666666" borderopacity="1" gridtolerance="10" guidetolerance="10" id="namedview4" inkscape:current-layer="svg2" inkscape:cx="86.779663" inkscape:cy="86.779663" inkscape:pageopacity="0" inkscape:pageshadow="2" inkscape:window-height="696" inkscape:window-maximized="0" inkscape:window-width="962" inkscape:window-x="700" inkscape:window-y="314" inkscape:zoom="1.3597656" objecttolerance="10" pagecolor="#ffffff" showgrid="false">
	</sodipodi:namedview>
<path id="path3682" inkscape:connector-curvature="0" class="st0" d="M18.8,94.9l0.7-78l21.9-0.8l21.9-0.8l-1.2-8.1L60.9-1l22.7,0.8
	l22.7,0.8L105.6,8l-0.8,7.3l22.5,0.8l22.5,0.8l0.7,49.8c0.7,44.3,1.2,49.4,4.9,46.3c3.4-2.9,5.1-2.5,9.9,2.3l5.7,5.7l-9.8,11.9
	c-7.8,9.5-10,14.7-10.6,25.2l-0.8,13.3l-65.8,0.7l-65.8,0.7L18.8,94.9z M145.7,160.2c0-6.8-0.3-6.9-4.9-2.8
	c-4.6,4.2-5.6,3.8-15.5-6.4l-10.6-10.8l5.9-5.9c4.9-4.9,6.5-5.3,10.1-2.3c3.6,3,5.2,2.7,9.7-1.4c5.1-4.6,5.4-7.8,4.7-56.6l-0.7-51.7
	H124h-20.3l-1.4,8.1c-1.4,8-1.7,8.1-17.6,8.1c-15.9,0-16.2-0.1-18.7-8.8L63.5,21H43.6H23.6v73.2v73.2h61h61V160.2z M34.5,159.3
	c0-1.5,6.2-2.7,13.7-2.7c8.5,0,13.1,1,12,2.7c-0.9,1.5-7.1,2.7-13.7,2.7S34.5,160.8,34.5,159.3z M67,159.3c0-1.6,9.5-2.7,23.1-2.7
	c13.6,0,23.1,1.1,23.1,2.7s-9.5,2.7-23.1,2.7C76.5,162,67,160.9,67,159.3z M34.5,140.3c0-1.7,13.6-2.7,35.3-2.7s35.3,1,35.3,2.7
	c0,1.7-13.6,2.7-35.3,2.7S34.5,142,34.5,140.3z M34.5,124c0-1.6,9-2.7,21.7-2.7s21.7,1.1,21.7,2.7s-9,2.7-21.7,2.7
	S34.5,125.6,34.5,124z M83.3,124c0-1.5,4.3-2.7,9.5-2.7c5.2,0,9.5,1.2,9.5,2.7c0,1.5-4.3,2.7-9.5,2.7
	C87.6,126.7,83.3,125.5,83.3,124z M107.7,124c0-1.5,2.4-2.7,5.4-2.7s5.4,1.2,5.4,2.7c0,1.5-2.4,2.7-5.4,2.7S107.7,125.5,107.7,124z
	 M35.7,112.3c-0.8-2-1-17.5-0.6-34.6l0.8-31L84,46l48.1-0.7v35.3v35.3H84.6C47.8,115.9,36.7,115.1,35.7,112.3z M64.6,97
	c0.9-6.6,2.9-12.5,4.5-13c1.7-0.6,2.3-4.7,1.5-10c-1.2-7.6-0.3-9.8,5.6-13.7c6.6-4.3,7.6-4.3,13.9-0.2c6.8,4.4,7.8,6.9,6.9,15.8
	c-0.3,2.6,1.4,7.4,3.8,10.8c2.3,3.3,4.2,10,4.2,14.9c0,8.6,0.4,8.9,10.8,8.9h10.8V80.6V50.8H83.3H39.9v28c0,15.4,0.9,28.9,1.9,30
	c1.1,1.1,6.3,1.6,11.5,1.1C62.5,109.1,63,108.5,64.6,97z M98.7,106.1c0.9-2.4,0.6-7.6-0.8-11.5c-1.9-5.5-4.6-7.3-11.4-8
	c-11.6-1.1-16.7,3.4-16.7,14.8v9.2h13.6C93.4,110.5,97.5,109.3,98.7,106.1z M91,72.8C92.1,65,86.8,61,80,64.6
	c-5.7,3-6.3,8.1-1.6,12.8C83.5,82.5,89.9,80,91,72.8z M158.3,127.3c2.4-3.4,3.5-7.1,2.4-8.1c-1.8-1.8-4.5,0.9-18.2,18.3
	c-4.6,5.8-6,6.2-10.8,3.2c-8.3-5.2-9.5-1.3-2.2,6.5l6.5,6.9l9-10.3C149.9,138.1,155.9,130.7,158.3,127.3z M97.8,24.3
	c3.3-19.8,3.4-19.7-14.5-19.7C74.3,4.7,67,5.2,67,5.9s1.3,7.4,2.9,14.9l2.9,13.7h11.6C95.8,34.5,96.2,34.3,97.8,24.3L97.8,24.3z
	 M79.7,26c-5.5-3.1-5.9-8.7-0.9-12.9c5.4-4.5,12.5-0.7,12.5,6.5C91.4,26.8,86.3,29.6,79.7,26z M86,18.2c0-1.5-0.5-2.7-1.2-2.7
	c-0.7,0-2,1.2-2.9,2.7C81,19.7,81.5,21,83.1,21S86,19.7,86,18.2z"/>
</svg>
