<?xml version="1.0" encoding="utf-8"?>
<!-- Generator: Adobe Illustrator 19.2.1, SVG Export Plug-In . SVG Version: 6.00 Build 0)  -->
<svg version="1.1"
	 id="svg2" inkscape:version="0.92.1 r15371" sodipodi:docname="support.svg" xmlns:cc="http://creativecommons.org/ns#" xmlns:dc="http://purl.org/dc/elements/1.1/" xmlns:inkscape="http://www.inkscape.org/namespaces/inkscape" xmlns:rdf="http://www.w3.org/1999/02/22-rdf-syntax-ns#" xmlns:sodipodi="http://sodipodi.sourceforge.net/DTD/sodipodi-0.dtd" xmlns:svg="http://www.w3.org/2000/svg"
	 xmlns="http://www.w3.org/2000/svg" xmlns:xlink="http://www.w3.org/1999/xlink" x="0px" y="0px" viewBox="0 0 173.6 173.6"
	 style="enable-background:new 0 0 173.6 173.6;" xml:space="preserve">
<style type="text/css">
	.st0{fill:#FF8D00;}
</style>
<sodipodi:namedview  bordercolor="#666666" borderopacity="1" gridtolerance="10" guidetolerance="10" id="namedview4" inkscape:current-layer="svg2" inkscape:cx="86.779663" inkscape:cy="86.779663" inkscape:pageopacity="0" inkscape:pageshadow="2" inkscape:window-height="696" inkscape:window-maximized="0" inkscape:window-width="962" inkscape:window-x="700" inkscape:window-y="314" inkscape:zoom="1.3597656" objecttolerance="10" pagecolor="#ffffff" showgrid="false">
	</sodipodi:namedview>
<path id="path3695" inkscape:connector-curvature="0" class="st0" d="M4.3,141.8L5,108.6l16.7-0.8c15-0.7,16.9-0.2,18.1,4.7
	c1.7,6.6,0.3,6.5,14,1.5c6.2-2.2,15.4-4.1,20.4-4.1c15.1,0,41.3,7.9,46.3,14c4.7,5.6,4.7,5.6,19-8.3c9.5-9.2,16.6-13.9,21-13.9
	c6.7,0,12.1,6.6,12.1,14.5c0,2.2-11.3,14.5-25.1,27.3l-25.1,23.3H92.2c-18.5,0-30.4-1.1-30.4-2.7c0-1.6,10.1-2.7,24.9-2.7
	c13.7,0,28.3-1.3,32.4-2.9c8.4-3.2,45.8-40,45.8-45.1c0-8.3-6.7-5.3-25.1,11.2L120,142.5h-18.5c-10.6,0-18.5-1.2-18.5-2.7
	c0-1.5,5.8-2.7,13-2.7c15.4,0,21.4-1.9,21.4-6.9c0-3.7-8-6.6-32.8-12.1c-11.4-2.5-15.6-2.2-28,2.2L42,125.4l-0.8,24.8L40.5,175H22
	H3.5L4.3,141.8z M34.8,141.8l0.8-26.4H22.3H9v25.3c0,13.9,0.8,26.2,1.9,27.2c1,1.1,6.7,1.6,12.6,1.1l10.7-0.8L34.8,141.8z M21,161.7
	c-0.8-1.4-0.3-3.3,1.2-4.2c1.5-0.9,2.7,0.2,2.7,2.5C24.8,164.7,23.2,165.4,21,161.7L21,161.7z M19.5,135.7c0-8.2,1.2-14.9,2.6-14.9
	c1.5,0,2.6,6.7,2.6,14.9s-1.2,14.9-2.6,14.9C20.7,150.6,19.5,143.9,19.5,135.7z M48.6,164.2c0-1.5,1.2-2.7,2.6-2.7
	c1.5,0,2.6,1.2,2.6,2.7c0,1.5-1.2,2.7-2.6,2.7C49.8,166.9,48.6,165.7,48.6,164.2z M78.6,97.7c-2.9-7.7,1.2-12.2,10.9-12.2
	c5.1,0,9.3,1.3,9.3,2.9c0,1.7,5.4,2.5,13.9,2l13.9-0.8l0.8-25.8c1.3-40.7-2.8-51.5-20.8-55.2c-8.8-1.8-10.5-7.1-2.3-7.1
	c14.4,0,28.9,15.6,28.9,30.9c0,4.7,2.2,7.9,7.2,10.3c14.3,7,14.8,28.6,0.9,36c-4.4,2.3-8.1,6.7-8.6,10.2c-0.8,5.5-2.5,6.2-17.4,6.9
	c-9.1,0.4-16.5,2-16.5,3.4C98.8,103.6,80.3,102.2,78.6,97.7L78.6,97.7z M93.5,93.7c0-1.5-1.8-2.7-4-2.7c-2.2,0-4,1.2-4,2.7
	c0,1.5,1.8,2.7,4,2.7C91.8,96.4,93.5,95.2,93.5,93.7z M142.7,67.9c4-6.3,4-7.3,0-13.6c-6.6-10.3-9.5-8.2-9.5,6.8
	S136.1,78.2,142.7,67.9z M34.8,78.6c-13.4-7.5-12.6-29,1.3-35.9c5-2.5,7.2-5.6,7.2-10.3C43.3,17,57.9,1.5,72.3,1.5
	c7.3,0,6.9,4.6-0.5,6.8C51.9,13.9,48.6,21,48.6,57.5C48.6,84.9,47.9,85.9,34.8,78.6z M43.3,61.1c0-15-2.9-17.1-9.5-6.8
	c-4,6.3-4,7.3,0,13.6C40.4,78.2,43.3,76.1,43.3,61.1z M79.4,76.3C78.6,74,75.9,73,73,73.7c-6,1.6-12.4-5.5-10.2-11.3
	c0.9-2.4-0.1-4.9-2.3-5.7c-5.1-2-5.1-16.2,0-18.2c2.2-0.9,3.2-3.3,2.3-5.7C60.6,26.9,67,19.8,73,21.4c2.8,0.8,5.6-0.3,6.4-2.5
	c1.9-5,15.7-5,17.6,0c0.8,2.2,3.6,3.3,6.4,2.5c6-1.6,12.4,5.5,10.2,11.3c-0.9,2.4,0.1,4.9,2.3,5.7c5,2,5.1,16.2,0.2,18.1
	c-2.2,0.8-3.2,3.7-2.5,6.6c1.6,6.2-5.3,12.7-11,10.5c-2.3-0.9-4.7,0.1-5.6,2.4C95.2,81.2,81.4,81.4,79.4,76.3z M91.8,70.6
	c0.8-2.2,4.5-4.1,8.2-4.1c5.3,0,6.7-1.3,6.7-6.6c0-3.7,1.9-7.7,4.1-9c3.7-2.2,3.7-2.7,0-5.9c-2.3-1.9-4.1-6.6-4.1-10.3
	c0-4.9-1.1-6.3-4-5.2c-2.2,0.9-6.4-0.8-9.3-3.8c-5.2-5.3-5.2-5.3-10.5,0c-2.9,3-7,4.6-9.3,3.8c-2.9-1.2-4,0.2-4,5.2
	c0,3.7-1.9,8.3-4.1,10.3c-3.7,3.2-3.7,3.7,0,5.9c2.3,1.3,4.1,5.4,4.1,9c0,5.3,1.4,6.6,6.7,6.6c3.7,0,7.4,1.8,8.2,4.1
	s2.5,4.1,3.6,4.1C89.4,74.7,91,72.9,91.8,70.6z M80.3,55.7c-2.9-3-5.3-6.6-5.3-8.1C75,44.1,84.8,34,88.3,34c1.5,0,5,2.4,7.9,5.4
	c2.9,3,5.3,6.6,5.3,8.1c0,1.5-2.4,5.2-5.3,8.1s-6.5,5.4-7.9,5.4C86.8,61.1,83.2,58.7,80.3,55.7z M93,48.3c-0.5-2.6-2.6-4.7-4.8-4.7
	s-4.3,2.1-4.8,4.7c-0.6,3.3,0.8,4.7,4.8,4.7S93.7,51.6,93,48.3z M85.6,4.2c0-1.5,1.2-2.7,2.6-2.7c1.5,0,2.6,1.2,2.6,2.7
	s-1.2,2.7-2.6,2.7C86.8,6.9,85.6,5.7,85.6,4.2z"/>
</svg>
